<mxfile host="app.diagrams.net" modified="2023-10-01T03:18:40.302Z" agent="Mozilla/5.0 (Macintosh; Intel Mac OS X 10_15_7) AppleWebKit/537.36 (KHTML, like Gecko) Chrome/116.0.0.0 Safari/537.36" version="21.8.2" etag="ROaH6bV06URxEj5Hk3Fc" type="github">
  <diagram name="Page-1" id="rN_hS6wD4mBMnE9EkRK9">
    <mxGraphModel>
      <root>
        <mxCell id="0" />
        <mxCell id="1" parent="0" />
      </root>
    </mxGraphModel>
  </diagram>
</mxfile>
